<svg enable-background="new 0 0 76.00 76.00" height="76" viewBox="0 0 76 76" width="76" xmlns="http://www.w3.org/2000/svg"><path d="m30.4822 22.8009h6.8604l9.5696 29.4516h-5.7676l-2.6661-8.3463h-9.3509l-2.5347 8.3463h-5.549zm1.7914 9.7878-2.2719 7.2545h7.5599l-2.3164-7.2545c-.5678-1.791-1.0487-3.8015-1.4851-5.5057h-.0878c-.4372 1.7042-.8741 3.7579-1.3987 5.5057zm16.4287-7.5595c0-1.6605 1.2232-2.9278 3.0147-2.9278 1.8351 0 2.9715 1.2673 3.0152 2.9278 0 1.617-1.1801 2.8843-3.0589 2.8843-1.7914 0-2.971-1.2673-2.971-2.8843zm.3054 27.2233v-21.2802h5.419v21.2802z" stroke-linejoin="round" stroke-width=".2"/></svg>