<svg xmlns="http://www.w3.org/2000/svg"  viewBox="0 0 64 64" width="512px" height="512px"><radialGradient id="CJ0XkFS0Hsf020J9rC3Ooa" cx="32" cy="31.5" r="31.259" gradientUnits="userSpaceOnUse"><stop offset="0" stop-color="#c5f1ff"/><stop offset=".35" stop-color="#cdf3ff"/><stop offset=".907" stop-color="#e4faff"/><stop offset="1" stop-color="#e9fbff"/></radialGradient><path fill="url(#CJ0XkFS0Hsf020J9rC3Ooa)" d="M60.5,43l-10.357,0c-1.308,0-2.499-0.941-2.63-2.242C47.363,39.261,48.534,38,50,38h7.869	c1.451,0,2.789-0.972,3.071-2.395C61.319,33.693,59.848,32,58,32H42v-6h18c2.335,0,4.22-2.028,3.979-4.41	c-0.21-2.075-2.082-3.59-4.168-3.59h-1.705c-0.996,0-1.92-0.681-2.08-1.664C55.824,15.083,56.785,14,58,14l0.357,0	c1.308,0,2.5-0.941,2.63-2.242C61.137,10.261,59.966,9,58.5,9h-12C45.672,9,45,8.328,45,7.5S45.672,6,46.5,6l1.857,0	c1.308,0,2.499-0.941,2.63-2.242C51.137,2.261,49.966,1,48.5,1L15.643,1c-1.308,0-2.499,0.941-2.63,2.242	C12.863,4.739,14.034,6,15.5,6h1.393c0.996,0,1.92,0.681,2.08,1.664C19.176,8.917,18.215,10,17,10L6.189,10	c-2.086,0-3.958,1.514-4.168,3.59C1.78,15.972,3.665,18,6,18l6.302,0c1.895,0,3.594,1.419,3.693,3.312	C16.101,23.33,14.495,25,12.5,25l-4.311,0c-2.086,0-3.958,1.514-4.168,3.59C3.78,30.972,5.665,33,8,33h14v11H6.131	c-1.451,0-2.789,0.972-3.071,2.395C2.681,48.307,4.152,50,6,50c1.215,0,2.176,1.083,1.973,2.336C7.813,53.319,6.889,54,5.893,54	H4.189c-2.086,0-3.958,1.514-4.168,3.59C-0.22,59.972,1.665,62,4,62l55.812,0c2.086,0,3.958-1.514,4.168-3.59	C64.22,56.028,62.335,54,60,54h0c-1.105,0-2-0.895-2-2v0c0-1.105,0.895-2,2-2h0.386c1.67,0,3.195-1.122,3.537-2.757	C64.392,44.998,62.668,43,60.5,43z"/><path fill="#fff" d="M19.429,20.374l29.167-2.113c0.407-0.029,0.553-0.552,0.221-0.788l-4.306-3.061	c-1.308-0.952-2.893-1.388-4.489-1.231l-27.716,1.667c-0.395,0.024-0.576,0.502-0.297,0.782l2.755,2.755	c1.052,1.052,3.129,1.949,4.616,1.995l0.02,0.001c0.01-0.001,0.019-0.004,0.03-0.005C19.429,20.374,19.429,20.374,19.429,20.374z"/><path fill="#fff" d="M20.976,54.497l29.753-2.155c0.764-0.056,1.975-1.013,1.975-3.347V21.851	c0-0.367-0.24-0.809-0.641-1.183c-0.47-0.438-1.057-0.7-1.56-0.666l-29.753,2.155h0.001c-0.816,0.059-1.454,0.745-1.454,1.562	v29.215c0,0.439,0.177,0.847,0.5,1.147C20.118,54.381,20.544,54.537,20.976,54.497z"/><linearGradient id="CJ0XkFS0Hsf020J9rC3Oob" x1="32.5" x2="32.5" y1="10.72" y2="56.774" gradientUnits="userSpaceOnUse"><stop offset=".122" stop-color="#5e6d7b"/><stop offset=".191" stop-color="#5d6b79"/><stop offset="1" stop-color="#515c69"/></linearGradient><path fill="url(#CJ0XkFS0Hsf020J9rC3Oob)" d="M53.43,19.17c-0.233-0.216-0.935-0.803-1.061-0.893L44.03,12.35 c-1.682-1.224-3.743-1.787-5.764-1.591l-24.701,1.485C11.333,12.461,10,14.052,10,16.5v25.699c0,1.17,0.363,2.289,1.034,3.21 c0,0,7.16,9.936,7.401,10.16c0.833,0.775,1.936,1.205,3.067,1.205c0.107,0,0.215-0.004,0.322-0.012l28.501-2.064 C52.648,54.529,55,52.346,55,48.5v-26C55,21.313,54.428,20.099,53.43,19.17z M38.501,13.749c1.343-0.132,2.677,0.235,3.777,1.036 l3.623,2.576c0.28,0.199,0.157,0.639-0.186,0.663l-24.541,1.778c0,0,0,0-0.001,0c-0.009,0.001-0.016,0.004-0.025,0.004 l-0.017-0.001c-1.251-0.038-2.999-0.793-3.884-1.678l-2.318-2.318c-0.235-0.235-0.082-0.638,0.25-0.658L38.501,13.749z M52,48.5 c0,2.235-1.16,3.152-1.892,3.206l-28.5,2.064c-0.413,0.038-0.821-0.111-1.13-0.397C20.17,53.086,20,52.695,20,52.274V24.29 c0-0.782,0.611-1.439,1.393-1.496h-0.001l28.5-2.064c0.481-0.033,1.044,0.218,1.494,0.638C51.771,21.725,52,22.148,52,22.5V48.5z"/><linearGradient id="CJ0XkFS0Hsf020J9rC3Ooc" x1="36.934" x2="36.934" y1="26" y2="49" gradientUnits="userSpaceOnUse"><stop offset=".122" stop-color="#5e6d7b"/><stop offset=".191" stop-color="#5d6b79"/><stop offset="1" stop-color="#515c69"/></linearGradient><path fill="url(#CJ0XkFS0Hsf020J9rC3Ooc)" d="M48.251,26L42,26c-0.738,0-1.383,0.4-1.729,0.995C40.012,27.439,40.318,28,40.833,28L43,28 v13l-8.527-13.264c-0.295-0.46-0.802-0.739-1.349-0.745l-5.955-0.056c-1.051-0.01-1.932,0.67-2.129,1.647 C24.998,28.796,25.151,29,25.369,29l1.228,0C26.82,29,27,29.18,27,29.403V47l-0.355,0.141C25.832,47.464,25,48,25,49h7 c0,0,1.404,0,1.859-1.176c0.163-0.42-0.072-0.895-0.5-1.037l-1.588-0.529C31.311,46.104,31,45.672,31,45.187V33l9,14 c0,0,1.633,2.449,4.899,1.446C45.547,48.247,46,47.654,46,46.976L46,28h1c0.803,0,1.496-0.473,1.814-1.156 C48.997,26.451,48.685,26,48.251,26z"/></svg>